<?xml version="1.0" encoding="UTF-8"?>
<svg version="1.1" xmlns="http://www.w3.org/2000/svg" width="102" height="57">
<path d="M0 0 C33.66 0 67.32 0 102 0 C102 18.81 102 37.62 102 57 C68.34 57 34.68 57 0 57 C0 38.19 0 19.38 0 0 Z " fill="#121313" transform="translate(0,0)"/>
<path d="M0 0 C2.875 2.125 2.875 2.125 5 5 C5.3125 8.3125 5.3125 8.3125 5 11 C2.69 11 0.38 11 -2 11 C-2.33 10.01 -2.66 9.02 -3 8 C-3.99 8 -4.98 8 -6 8 C-9.00559652 13.00932754 -9.29341888 16.32723489 -9 22 C-7.68 22.33 -6.36 22.66 -5 23 C-4.67 21.68 -4.34 20.36 -4 19 C-4.66 19 -5.32 19 -6 19 C-6.042721 17.33388095 -6.04063832 15.66617115 -6 14 C-5 13 -5 13 -2.27734375 12.90234375 C-0.62412109 12.91974609 -0.62412109 12.91974609 1.0625 12.9375 C2.16722656 12.94652344 3.27195312 12.95554687 4.41015625 12.96484375 C5.26480469 12.97644531 6.11945312 12.98804688 7 13 C6.67 14.98 6.34 16.96 6 19 C5.01 19 4.02 19 3 19 C2.9071875 20.36125 2.9071875 20.36125 2.8125 21.75 C1.80707694 25.77169224 0.39893348 26.76167795 -3 29 C-6.09173752 30.54586876 -8.59429552 30.29359521 -12 30 C-14.90717073 27.78136971 -15.83981643 26.48055071 -17 23 C-17.04851615 15.73228129 -16.96716144 9.55153337 -12 4 C-11.484375 3.401875 -10.96875 2.80375 -10.4375 2.1875 C-7.30381197 -0.40119881 -3.87107501 -0.464529 0 0 Z " fill="#F1EED3" transform="translate(28,15)"/>
<path d="M0 0 C3.3 0 6.6 0 10 0 C10 9.57 10 19.14 10 29 C7.69 29 5.38 29 3 29 C3 27.68 3 26.36 3 25 C0.69 25 -1.62 25 -4 25 C-4 25.99 -4 26.98 -4 28 C-6.64 28 -9.28 28 -12 28 C-9.50216544 20.61910362 -7.08050404 13.66482326 -3 7 C-1.927762 4.69056432 -0.96260274 2.35837671 0 0 Z " fill="#F7F4D8" transform="translate(60,16)"/>
<path d="M0 0 C1.58294782 -0.05437607 3.16644256 -0.09296271 4.75 -0.125 C5.63171875 -0.14820313 6.5134375 -0.17140625 7.421875 -0.1953125 C10.17591286 0.01332673 11.71922379 0.45920896 14 2 C16.1049724 6.78402818 16.26332334 10.32941621 14.74609375 15.2109375 C13.58535991 17.99426786 12.49655719 19.27161426 10 21 C7.04589854 22.17857934 4.06000102 23.13692279 1 24 C1 25.32 1 26.64 1 28 C-1.31 28 -3.62 28 -6 28 C-5.2135984 22.90477298 -4.13161419 17.90166303 -3 12.875 C-2.82210937 12.07707031 -2.64421875 11.27914063 -2.4609375 10.45703125 C-1.67875413 6.96055485 -0.8797868 3.47340606 0 0 Z " fill="#F3F0D5" transform="translate(77,16)"/>
<path d="M0 0 C2.5 1.6875 2.5 1.6875 4 4 C4.25 6.75 4.25 6.75 4 9 C2.02 9 0.04 9 -2 9 C-2.33 8.34 -2.66 7.68 -3 7 C-3.66 7 -4.32 7 -5 7 C-4.42435345 10.88561424 -2.48746646 13.04613357 0 16 C1.3899408 18.7798816 1.18488204 20.9186326 1 24 C0.14986429 26.55040714 -0.53147678 27.65294576 -2.6875 29.25 C-5.97651994 30.31670917 -8.56537906 30.3679951 -12 30 C-14.4375 28.3125 -14.4375 28.3125 -16 26 C-16.25 23.25 -16.25 23.25 -16 21 C-13.69 21 -11.38 21 -9 21 C-9 21.99 -9 22.98 -9 24 C-8.34 23.67 -7.68 23.34 -7 23 C-7.57564655 19.11438576 -9.51253354 16.95386643 -12 14 C-13.56935594 10.86128812 -13.35201103 8.46144178 -13 5 C-9.28222104 -0.46048784 -6.17499257 -0.8821418 0 0 Z " fill="#F3F0D5" transform="translate(48,15)"/>
<path d="M0 0 C2.84383123 1.2748209 5.13754018 2.45137078 7 5 C6.6875 7.1875 6.6875 7.1875 6 9 C5.34 9 4.68 9 4 9 C4 8.01 4 7.02 4 6 C1.36 6.33 -1.28 6.66 -4 7 C-4 6.01 -4 5.02 -4 4 C-3.01 4 -2.02 4 -1 4 C-0.67 2.68 -0.34 1.36 0 0 Z " fill="#252623" transform="translate(35,30)"/>
<path d="M0 0 C0.33 0 0.66 0 1 0 C1.125 7.625 1.125 7.625 0 11 C-1.32 11 -2.64 11 -4 11 C-3.5247412 9.35303396 -3.04468109 7.70745272 -2.5625 6.0625 C-2.29566406 5.14597656 -2.02882812 4.22945312 -1.75390625 3.28515625 C-1 1 -1 1 0 0 Z " fill="#44443D" transform="translate(63,24)"/>
<path d="M0 0 C1.32 0.33 2.64 0.66 4 1 C4.25 6.625 4.25 6.625 2 10 C1.34 10 0.68 10 0 10 C0 6.7 0 3.4 0 0 Z " fill="#1C1C1B" transform="translate(81,22)"/>
</svg>
